<svg xmlns="http://www.w3.org/2000/svg" xmlns:xlink="http://www.w3.org/1999/xlink" aria-hidden="true" role="img" class="iconify iconify--logos" width="35.93" height="32" preserveAspectRatio="xMidYMid meet" viewBox="0 0 256 228"><path fill="#00D8FF" d="M210.483 73.824a171.49 171.49 0 0 0-8.24-2.597c.465-1.9.893-3.777 1.273-5.621c6.238-30.281 2.16-54.676-11.769-62.708c-13.355-7.7-35.196.329-57.254 19.526a171.23 171.23 0 0 0-6.375 5.848a155.866 155.866 0 0 0-4.241-3.917C100.759 3.829 77.587-4.822 63.673 3.233C50.33 10.957 46.379 33.89 51.995 62.588a170.974 170.974 0 0 0 1.892 8.48c-3.28.932-6.445 1.924-9.474 2.98C17.309 83.498 0 98.307 0 113.668c0 15.865 18.582 31.778 46.812 41.427a145.52 145.52 0 0 0 6.921 2.165a167.467 167.467 0 0 0-2.01 9.138c-5.354 28.2-1.173 50.591 12.134 58.266c13.744 7.926 36.812-.22 59.273-19.855a145.567 145.567 0 0 0 5.342-4.923a168.064 168.064 0 0 0 6.92 6.314c21.758 18.722 43.246 26.282 56.54 18.586c13.731-7.949 18.194-32.003 12.4-61.268a145.016 145.016 0 0 0-1.535-6.842c1.62-.48 3.21-.974 4.76-1.488c29.348-9.723 48.443-25.443 48.443-41.52c0-15.417-17.868-30.326-45.517-39.844Zm-6.365 70.984c-1.596.54-3.233 1.057-4.902 1.557a179.7 179.7 0 0 0-12.053-26.348c4.272-6.904 7.803-13.98 10.563-21.019c9.466 2.929 17.62 6.2 24.2 9.73c0 0 .002 0 .002.001c10.25 5.437 15.426 11.5 15.426 16.63c0 9.588-14.802 21.82-38.44 28.822zM128 149.787c-6.374 7.021-12.852 13.347-19.27 18.936c-13.629-11.948-26.978-26.44-38.43-42.863c-11.284-16.168-20.368-32.798-26.645-48.983a200.988 200.988 0 0 1 26.56-4.327c.014-9.14.355-18.26 1.005-27.25c9.138.944 18.738 2.619 28.591 5.028a199.065 199.065 0 0 1 28.17-13.774c13.63 11.972 26.971 26.428 38.384 42.806c11.257 16.09 20.341 32.7 26.663 48.934a200.997 200.997 0 0 1-26.617 4.32c.011 9.085-.335 18.214-.993 27.257a199.13 199.13 0 0 1-17.418-10.084Zm-58.485-9.134c-3.476 0-6.845-.121-10.1-.35c-2.29-5.253-4.437-10.742-6.393-16.474c1.97-5.745 4.137-11.246 6.449-16.507c3.285.239 6.652.36 10.044.36c3.377 0 6.73-.12 10-.354c2.3 5.247 4.462 10.733 6.435 16.467c-1.963 5.748-4.128 11.258-6.449 16.527c-3.265-.232-6.607-.47-10-.47Zm97.23.202a196.337 196.337 0 0 1-10.058.348c-3.404 0-6.783-.122-10.087-.354a196.54 196.54 0 0 1-6.401-16.441c1.97-5.743 4.142-11.247 6.465-16.518c3.285.235 6.657.353 10.023.353c3.376 0 6.726-.117 9.995-.35c2.3 5.247 4.46 10.74 6.432 16.481c-1.964 5.751-4.13 11.267-6.369 16.481Zm-9.697-42.383a197.624 197.624 0 0 1-17.376-10.084a199.31 199.31 0 0 1 28.142-13.802c.019 9.116.36 18.242 1.007 27.247a198.915 198.915 0 0 1-11.773-3.361Zm-81.322-9.986a197.53 197.53 0 0 1 28.148 13.823a197.424 197.424 0 0 1-17.39 10.036a199.28 199.28 0 0 1-11.766 3.363c.648-9.012.985-18.148.987-27.222Zm39.351-9.274c7.087-3.9 14.34-7.314 21.725-10.23a196.28 196.28 0 0 1 .01 20.509a195.984 195.984 0 0 1-21.735-10.279Zm-20.668-.031c-7.405 2.896-14.672 6.28-21.73 10.155a196.03 196.03 0 0 1-.012-20.424a195.933 195.933 0 0 1 21.742 10.27Zm-57.35-20.875c7.623-3.49 16.013-6.657 24.938-9.415a200.25 200.25 0 0 0-10.55 21.012c-3.648-5.3-6.983-10.674-9.938-15.953a195.655 195.655 0 0 0-4.45 4.356Zm99.374-43.245c-5.744-4.67-11.648-8.946-17.683-12.805c2.208-1.775 4.42-3.476 6.63-5.083c14.944-11.058 29.56-17.003 40.196-17.003c3.765 0 6.842.748 9.12 2.211c9.09 5.246 11.786 21.62 7.336 44.58a169.677 169.677 0 0 1-1.225 5.447a193.494 193.494 0 0 0-44.374-17.347ZM53.161 40.418c10.613 0 24.926 5.84 39.651 16.574c2.065 1.499 4.13 3.085 6.188 4.75a199.47 199.47 0 0 0-17.671 12.812a193.51 193.51 0 0 0-44.496 17.457a167.927 167.927 0 0 1-1.257-5.652c-4.314-22.502-1.548-38.617 7.346-43.786c2.26-1.458 5.284-2.155 10.239-2.155Zm-22.184 57.994c2.93-5.317 6.305-10.712 10.023-16.04a200.26 200.26 0 0 0 24.914 9.305c-2.314 5.27-4.469 10.773-6.439 16.518c-2.295 5.263-4.428 10.753-6.39 16.476c-9.027-2.806-17.476-5.99-25.132-9.523c.67-5.59 1.7-11.042 2.892-16.736Zm84.31 157.013c-10.655 0-24.889-5.835-39.55-16.498c-2.082-1.515-4.155-3.117-6.219-4.803a200.32 200.32 0 0 0 17.664-12.809a193.614 193.614 0 0 0 44.472-17.434a167.765 167.765 0 0 1 1.268 5.636c4.315 22.546 1.553 38.698-7.367 43.89c-2.278 1.472-5.313 2.018-10.268 2.018Zm99.818-43.58c-2.943 5.337-6.328 10.727-10.042 16.058a196.923 196.923 0 0 0-25.004-9.358c2.332-5.283 4.51-10.816 6.495-16.575c1.965-5.743 3.903-11.258 5.845-16.504c9.108 2.838 17.614 6.045 25.284 9.59c-.683 5.671-1.734 11.162-2.578 16.789Z"></path></svg>
